<svg width="18" height="18" viewBox="0 0 18 18" fill="none" xmlns="http://www.w3.org/2000/svg">
<path d="M13.294 12.7763C13.2937 13.2976 12.8599 13.7215 12.3233 13.7216H11.6212C11.6454 13.8005 11.6592 13.8835 11.6592 13.9706V15.8622C11.6591 16.3565 11.2462 16.7577 10.7374 16.7577C10.2296 16.7576 9.81762 16.3564 9.81744 15.8622V13.9706C9.81744 13.8835 9.83028 13.8005 9.85358 13.7216H8.14459C8.16789 13.8005 8.1817 13.8835 8.1817 13.9706V15.8622C8.18153 16.3565 7.76867 16.7577 7.2608 16.7577C6.75305 16.7576 6.34008 16.3564 6.3399 15.8622V13.9706C6.3399 13.8835 6.35278 13.8005 6.37701 13.7216H5.67682C5.14011 13.7216 4.70442 13.2977 4.70416 12.7763V6.20598H13.294V12.7763ZM3.17096 6.20598C3.67889 6.20599 4.09083 6.60715 4.09088 7.10149V10.9345C4.09075 11.4288 3.67884 11.83 3.17096 11.83C2.66213 11.83 2.25019 11.4288 2.25006 10.9345V7.10149C2.25011 6.60715 2.66209 6.20598 3.17096 6.20598ZM14.8292 6.20598C15.3371 6.20598 15.75 6.60718 15.7501 7.10149V10.9345C15.75 11.4288 15.3371 11.83 14.8292 11.83C14.3205 11.8298 13.9084 11.4287 13.9083 10.9345V7.10149C13.9084 6.60733 14.3205 6.20623 14.8292 6.20598ZM11.795 1.35442C11.8653 1.39979 11.885 1.49173 11.838 1.56047L11.4551 2.12004L11.2842 2.36809L11.1124 2.62004C12.4135 3.21058 13.294 4.32935 13.294 5.6093H4.70416C4.70419 4.32935 5.58569 3.21058 6.88776 2.62004L6.7149 2.36809L6.54303 2.12004L6.16119 1.56047C6.11483 1.49161 6.13447 1.39976 6.20416 1.35442C6.27486 1.30915 6.36943 1.32682 6.41705 1.39544L6.82721 1.99407L7.00006 2.24602L7.17389 2.50188C7.72839 2.29236 8.34767 2.17476 8.99908 2.17473C9.65153 2.17473 10.2697 2.29233 10.8243 2.50188L10.9991 2.24602L11.5831 1.39544C11.6288 1.32665 11.7251 1.3082 11.795 1.35442ZM7.16022 3.51946C6.90576 3.51946 6.69928 3.71907 6.69928 3.96672C6.69938 4.21429 6.90583 4.41497 7.16022 4.41497C7.41449 4.41483 7.62008 4.21421 7.62018 3.96672C7.62018 3.71916 7.41455 3.51959 7.16022 3.51946ZM10.8399 3.51946C10.5857 3.51971 10.3799 3.71923 10.3799 3.96672C10.38 4.21413 10.5857 4.41472 10.8399 4.41497C11.0943 4.41497 11.3007 4.21429 11.3008 3.96672C11.3008 3.71907 11.0944 3.51946 10.8399 3.51946Z" fill="#576361"/>
</svg>
