<svg width="14" height="17" viewBox="0 0 14 17" fill="none" xmlns="http://www.w3.org/2000/svg">
<g id="Apple">
<path id="Shape" d="M10.2733 4.44922C11.3466 4.44937 12.4838 5.03806 13.2929 6.05273C10.6399 7.51545 11.0693 11.3262 13.7499 12.3457C13.3814 13.1671 13.204 13.5343 12.7294 14.2617C12.0671 15.2775 11.1329 16.5425 9.97451 16.5518C8.94641 16.5629 8.68082 15.8784 7.28506 15.8867C5.88988 15.8943 5.59873 16.5647 4.56924 16.5547C3.41182 16.5445 2.52648 15.4034 1.86416 14.3877C0.0111239 11.5496 -0.183789 8.21751 0.958885 6.44531C1.77179 5.18724 3.05423 4.45117 4.25869 4.45117C5.4842 4.45128 6.25546 5.12778 7.27041 5.12793C8.25512 5.12793 8.85539 4.44922 10.2733 4.44922ZM9.96279 0.75C10.1041 1.70991 9.71354 2.65005 9.19814 3.31543C8.64667 4.02914 7.69627 4.58154 6.77529 4.55273C6.60718 3.63365 7.03766 2.68638 7.56142 2.0498C8.13591 1.34744 9.12049 0.808698 9.96279 0.75Z" fill="#576361"/>
</g>
</svg>
