<svg width="16" height="16" viewBox="0 0 16 16" fill="none" xmlns="http://www.w3.org/2000/svg">
<g id="Frame">
<path id="Vector" fill-rule="evenodd" clip-rule="evenodd" d="M8.29371 1C8.2033 1 8.10998 1.00467 8.01434 1.01225C5.54874 1.20648 6.20262 3.81612 6.16527 4.68581C6.12037 5.32336 5.9903 5.82558 5.55224 6.44794C5.03604 7.06098 4.31159 8.052 3.96802 9.085C3.80587 9.57031 3.72888 10.0673 3.80062 10.5368C3.7738 10.5583 3.75175 10.5851 3.73588 10.6156C3.58423 10.7719 3.47398 10.9661 3.34974 11.1049C3.23366 11.221 3.06684 11.2607 2.88485 11.3383C2.7023 11.4176 2.50105 11.4952 2.3809 11.7355C2.3284 11.8451 2.30157 11.9647 2.3039 12.086C2.3039 12.2021 2.31965 12.3199 2.33598 12.3987C2.3698 12.6314 2.40363 12.8239 2.35873 12.9645C2.21407 13.3611 2.19599 13.6329 2.29748 13.8306C2.39898 14.0255 2.60954 14.1042 2.8452 14.1812C3.31824 14.2979 3.95927 14.26 4.46382 14.5306C5.00396 14.803 5.55226 14.922 5.98971 14.8048C6.14101 14.7717 6.28292 14.7049 6.4049 14.6095C6.52688 14.5141 6.62581 14.3924 6.69434 14.2535C7.03673 14.2518 7.41179 14.0966 8.01257 14.0587C8.42029 14.0249 8.93068 14.2145 9.5163 14.1748C9.53088 14.2535 9.55304 14.2909 9.58279 14.3696L9.58454 14.3714C9.81262 14.8252 10.2338 15.0316 10.6835 14.9961C11.1332 14.9611 11.6121 14.6834 11.9999 14.2343C12.368 13.7881 12.9816 13.602 13.387 13.3576C13.59 13.2415 13.7539 13.084 13.7656 12.86C13.779 12.6267 13.6495 12.3864 13.3491 12.0569V12.0003L13.3474 11.9985C13.2482 11.8819 13.2015 11.6865 13.1502 11.4584C13.1006 11.2245 13.044 10.9999 12.8632 10.8483H12.8615C12.8271 10.8168 12.7897 10.8092 12.7518 10.7695C12.7192 10.7468 12.6807 10.7338 12.641 10.7322C12.8924 9.98675 12.795 9.24481 12.5401 8.57752C12.2292 7.75508 11.6856 7.0388 11.2714 6.54592C10.8071 5.95972 10.3521 5.40442 10.3609 4.58081C10.3766 3.32558 10.4991 1.0035 8.29371 1ZM8.60227 2.98609H8.60987C8.7341 2.98609 8.84085 3.02227 8.95049 3.10159C9.06191 3.18034 9.14299 3.29525 9.20657 3.4125C9.26782 3.56356 9.29873 3.68022 9.3034 3.8348C9.3034 3.82313 9.3069 3.81147 9.3069 3.80037V3.86105C9.30561 3.85708 9.30482 3.85296 9.30455 3.8488L9.30223 3.8348C9.30103 3.97655 9.27127 4.1166 9.21473 4.24659C9.18749 4.31972 9.14516 4.3863 9.09051 4.442C9.07398 4.43267 9.05682 4.42448 9.03916 4.4175C8.97791 4.39125 8.92309 4.38017 8.87291 4.33992C8.83154 4.3234 8.7888 4.31052 8.74518 4.30144C8.77377 4.26702 8.82976 4.22386 8.85135 4.18594C8.88226 4.11128 8.89916 4.03195 8.90268 3.95145V3.94036C8.90399 3.86115 8.89196 3.78228 8.8671 3.70706C8.84085 3.62831 8.8082 3.58981 8.76035 3.51223C8.71135 3.47373 8.66295 3.43523 8.60462 3.43523H8.59527C8.54104 3.43523 8.49262 3.45273 8.44246 3.51223C8.38708 3.56627 8.34599 3.63322 8.32288 3.70706C8.29189 3.78117 8.27412 3.86013 8.27038 3.94038V3.95147C8.27155 4.00338 8.27505 4.05586 8.28205 4.10719C8.16948 4.06812 8.02657 4.02844 7.92799 3.98938C7.92213 3.95094 7.91862 3.91216 7.91749 3.87328V3.86162C7.91283 3.70745 7.94272 3.55419 8.00499 3.41308C8.0528 3.28506 8.1408 3.17599 8.25581 3.10219C8.35558 3.02682 8.47723 2.98606 8.60227 2.98609ZM6.87457 3.02052H6.89557C6.97838 3.02052 7.05307 3.04852 7.1283 3.09927C7.21346 3.17452 7.28229 3.26725 7.32896 3.3705C7.38146 3.48658 7.4112 3.60441 7.4182 3.75956V3.76189C7.42227 3.84005 7.4217 3.87912 7.41704 3.91705V3.9637C7.39954 3.96778 7.38437 3.9742 7.36862 3.9777C7.27996 4.00978 7.20879 4.05645 7.1394 4.09436C7.14638 4.04245 7.14696 3.98995 7.14113 3.93863V3.92987C7.13413 3.8523 7.11838 3.8138 7.0933 3.73564C7.07511 3.67619 7.04174 3.62251 6.99648 3.57989C6.9821 3.56682 6.96524 3.55678 6.94691 3.55037C6.92857 3.54396 6.90913 3.5413 6.88974 3.54256H6.87749C6.83609 3.54606 6.80166 3.56647 6.76899 3.61956C6.73178 3.66472 6.70757 3.71918 6.69899 3.77706C6.68315 3.84012 6.67861 3.90548 6.68559 3.97012V3.97828C6.69259 4.05703 6.70716 4.09553 6.73284 4.17311C6.75909 4.25127 6.7894 4.28977 6.82909 4.32942C6.83549 4.33467 6.84132 4.33992 6.8489 4.34342C6.80807 4.37667 6.78066 4.38425 6.74624 4.42275C6.7244 4.44202 6.69817 4.45564 6.66984 4.46242C6.60922 4.3894 6.55552 4.3109 6.50943 4.22794C6.4543 4.10536 6.4236 3.9732 6.41902 3.83888C6.40938 3.7072 6.42522 3.57491 6.46568 3.44923C6.49782 3.33464 6.55411 3.22824 6.63076 3.13719C6.70541 3.05961 6.78241 3.02052 6.87457 3.02052ZM7.67426 4.01562C7.86734 4.01562 8.10123 4.05355 8.38296 4.24836C8.55387 4.36503 8.68802 4.40527 8.99718 4.52134H8.99891C9.14766 4.60067 9.23516 4.6765 9.27773 4.75408V4.67767C9.29866 4.72008 9.31031 4.76647 9.31192 4.81374C9.31354 4.861 9.30506 4.90807 9.28707 4.95181C9.21532 5.13322 8.98609 5.32745 8.66645 5.44353V5.4447C8.51012 5.52345 8.37421 5.63892 8.2144 5.71592C8.0534 5.79467 7.87143 5.88623 7.62409 5.87167C7.53525 5.87627 7.44639 5.86298 7.36279 5.83258C7.29819 5.79743 7.23549 5.75888 7.17498 5.71709C7.06123 5.63834 6.96323 5.52344 6.81799 5.44586V5.44295H6.81507C6.58176 5.29945 6.45577 5.1443 6.41493 5.02823C6.3747 4.87191 6.41202 4.75466 6.52751 4.67825C6.65816 4.5995 6.74916 4.52019 6.80924 4.48227C6.8699 4.43911 6.89265 4.42277 6.9119 4.40586H6.91307V4.40411C7.01165 4.28628 7.16738 4.13055 7.40245 4.05355C7.48354 4.03255 7.57393 4.01562 7.67426 4.01562ZM9.3069 5.26562C9.51631 6.09216 10.0051 7.29256 10.3195 7.87469C10.4863 8.18617 10.8182 8.84237 10.9623 9.63856C11.0533 9.63564 11.1542 9.64906 11.2615 9.67591C11.6383 8.70122 10.943 7.65363 10.6263 7.36256C10.4974 7.24531 10.491 7.16716 10.5546 7.16716C10.8981 7.47864 11.3507 8.08409 11.5146 8.77528C11.5899 9.08736 11.6074 9.41925 11.5269 9.74939C11.566 9.76572 11.6056 9.78497 11.6465 9.78847C12.2484 10.1 12.4707 10.3356 12.3639 10.685V10.6599C12.3284 10.6582 12.2939 10.6599 12.2584 10.6599H12.2496C12.3377 10.3875 12.1434 10.1787 11.6284 9.94595C11.0947 9.71264 10.6683 9.74997 10.5954 10.2172C10.5913 10.2423 10.5884 10.2557 10.5855 10.2959C10.5458 10.3093 10.5044 10.3268 10.4636 10.3333C10.2127 10.4896 10.0774 10.7235 10.001 11.0256C9.92518 11.3365 9.90185 11.6999 9.88145 12.1158V12.1175C9.8692 12.3124 9.7817 12.6063 9.69537 12.9056C8.82043 13.5309 7.60718 13.8027 6.57534 13.1004C6.51062 12.9873 6.43184 12.8828 6.34085 12.7895C6.29744 12.7169 6.24337 12.6512 6.18046 12.5947C6.28662 12.5947 6.3776 12.5778 6.45168 12.5556C6.53556 12.5167 6.60117 12.4469 6.63484 12.3608C6.69784 12.205 6.63484 11.9542 6.4336 11.6824C6.23237 11.41 5.89055 11.102 5.39068 10.7952C5.02321 10.5625 4.81555 10.2878 4.7199 9.98095C4.62365 9.66948 4.63648 9.34808 4.71115 9.02144C4.85405 8.39731 5.22037 7.7907 5.45426 7.40981C5.51666 7.37189 5.47584 7.48856 5.21627 7.97794C4.98529 8.41598 4.55074 9.43441 5.14512 10.2259C5.16757 9.64842 5.29547 9.07988 5.52251 8.54839C5.85148 7.80294 6.53918 6.50453 6.59343 5.47561C6.62141 5.49661 6.71999 5.55436 6.76199 5.59342C6.88915 5.67102 6.98365 5.78767 7.10613 5.86467C7.22921 5.98191 7.38437 6.06006 7.6171 6.06006C7.63985 6.06181 7.66085 6.06356 7.68185 6.06356C7.92159 6.06356 8.10707 5.98541 8.2628 5.90725C8.43196 5.82909 8.56671 5.71242 8.69445 5.67394H8.69735C8.96976 5.59519 9.18499 5.43945 9.30688 5.26562M10.582 10.4908C10.6035 10.8413 10.782 11.217 11.0964 11.2939C11.4394 11.3721 11.9329 11.0997 12.1411 10.8477L12.2642 10.8425C12.4479 10.8378 12.6007 10.8483 12.7582 10.9982L12.76 11C12.8813 11.116 12.9379 11.3097 12.988 11.5109C13.0376 11.7448 13.0779 11.9659 13.2266 12.1327C13.5101 12.4401 13.6028 12.6612 13.5976 12.7977L13.5993 12.7942V12.8047L13.5976 12.7977C13.5888 12.9505 13.4897 13.0287 13.3071 13.1447C12.9396 13.3786 12.2887 13.56 11.8739 14.0605C11.5135 14.4904 11.0743 14.7249 10.6864 14.7552C10.2991 14.7861 9.96484 14.6385 9.76826 14.2314L9.76535 14.2297C9.64285 13.9958 9.69535 13.6318 9.79801 13.2439C9.90066 12.8542 10.0477 12.4594 10.0681 12.1368C10.0897 11.7203 10.1124 11.3581 10.1818 11.0787C10.2518 10.8075 10.3615 10.6138 10.5557 10.5048L10.582 10.4919V10.4908ZM4.27366 10.5193H4.27949C4.3104 10.5193 4.34074 10.5223 4.37105 10.5275C4.59038 10.5596 4.78287 10.7217 4.96777 10.9661L5.49857 11.9367L5.50032 11.9385C5.64205 12.2494 5.94012 12.5591 6.19385 12.8939C6.44701 13.2427 6.64299 13.5536 6.61907 13.8097V13.8132C6.58582 14.2472 6.33968 14.4828 5.96287 14.568C5.58665 14.6467 5.07627 14.5691 4.56588 14.2973C4.00126 13.9847 3.33048 14.0238 2.89943 13.9462C2.6842 13.9077 2.54302 13.8289 2.47771 13.7123C2.41296 13.5962 2.41179 13.3617 2.54945 12.9948V12.9931L2.55062 12.9913C2.61887 12.7965 2.56812 12.5521 2.53487 12.3386C2.50279 12.1047 2.48645 11.9251 2.55995 11.7903C2.65327 11.5955 2.79093 11.5576 2.96184 11.4794C3.13391 11.4007 3.33573 11.3616 3.49613 11.2059H3.4973V11.2041C3.64662 11.0478 3.75687 10.8536 3.88693 10.7153C3.99776 10.5981 4.10859 10.5193 4.27365 10.5193M8.44943 5.22652C8.19568 5.34377 7.89821 5.53859 7.58149 5.53859C7.26535 5.53859 7.0157 5.38286 6.83546 5.26678C6.74505 5.18861 6.67213 5.11045 6.6173 5.07137C6.52165 4.99322 6.53332 4.87656 6.57415 4.87656C6.63773 4.88589 6.64938 4.95531 6.69023 4.9938C6.74621 5.0323 6.81563 5.10987 6.90079 5.18803C7.07052 5.30469 7.29743 5.46044 7.5809 5.46044C7.8638 5.46044 8.19512 5.30469 8.39635 5.18861C8.5101 5.10986 8.65591 4.9938 8.77432 4.91622C8.86532 4.83631 8.86123 4.75989 8.93705 4.75989C9.0123 4.76923 8.9569 4.83806 8.85132 4.95414C8.72194 5.05199 8.5876 5.1431 8.44884 5.22711V5.22653L8.44943 5.22652ZM7.81831 4.30261V4.28977C7.81481 4.27867 7.82588 4.26527 7.83523 4.26059C7.87838 4.23552 7.94023 4.24484 7.98688 4.26294C8.02362 4.26294 8.0802 4.302 8.07438 4.34169C8.07087 4.37027 8.02479 4.38017 7.99563 4.38017C7.96354 4.38017 7.94196 4.35509 7.91338 4.34052C7.88305 4.33002 7.82823 4.33584 7.81831 4.30259M7.4969 4.30259C7.48524 4.33641 7.43099 4.33116 7.40009 4.34108C7.37266 4.35566 7.34993 4.38073 7.31901 4.38073C7.28926 4.38073 7.2426 4.36966 7.2391 4.34108C7.23385 4.30258 7.29043 4.2635 7.3266 4.2635C7.37384 4.24542 7.43391 4.23608 7.47766 4.26058C7.48876 4.26583 7.49866 4.27808 7.49516 4.28975V4.302H7.49691L7.4969 4.30259Z" fill="#576361"/>
</g>
</svg>
